# xmcd
#
# Track frame offsets: 
#        150
#        13607
#        24447
#        40163
#        53101
#        64950
#        76013
#        88710
#        105733
#        116914
#        127311
#        140300
#
# Disc length: 2142 seconds
#
# Revision: 0
# Processed by: cddbd v1.5.2PL0 Copyright (c) Steve Scherf et al.
# Submitted via: ExactAudioCopy v1.0b1
#
DISCID=9f085c0c
DTITLE=Dailey and Vincent - Brothers From Different Mothers
DYEAR=2009
DGENRE=Bluegrass
TTITLE0=Head Hung Down
TTITLE1=You Oughta Be Here With Me
TTITLE2=Your Love Is Like a Flower
TTITLE3=When I've Traveled My Last Mile
TTITLE4=Years Ago
TTITLE5=There Is You
TTITLE6=Girl in the Valley
TTITLE7=Please Don't Let Our Sweet Love Die
TTITLE8=Oh Ye Must Be Born Again
TTITLE9=Winter's Come and Gone
TTITLE10=When I Reach That Home Up There
TTITLE11=On the Other Side
EXTD=
EXTT0=
EXTT1=
EXTT2=
EXTT3=
EXTT4=
EXTT5=
EXTT6=
EXTT7=
EXTT8=
EXTT9=
EXTT10=
EXTT11=
PLAYORDER=
